<?xml version="1.0" encoding="UTF-8"?>
<svg version="1.1" xmlns="http://www.w3.org/2000/svg" width="365" height="364">
<path d="M0 0 C120.45 0 240.9 0 365 0 C365 120.12 365 240.24 365 364 C244.55 364 124.1 364 0 364 C0 243.88 0 123.76 0 0 Z " fill="#000000" transform="translate(0,0)"/>
<path d="M0 0 C4.35840854 0.04474752 8.27998298 1.31858058 12.44140625 2.515625 C15.9927668 3.48746748 19.46158783 4.02797502 23.125 4.25 C24.50365234 4.34667969 24.50365234 4.34667969 25.91015625 4.4453125 C32.29723505 4.68275037 37.85740107 3.93007048 44 2.25 C60.63070864 -2.12740734 80.87933848 -1.58739988 96.79296875 5.42578125 C99.66890323 6.4422338 101.34263851 6.18103836 104.3125 5.5625 C105.27027344 5.36398438 106.22804688 5.16546875 107.21484375 4.9609375 C110.79902016 4.08534004 114.30354169 3.02639576 117.8203125 1.9140625 C120.91523219 1.02230598 123.92686913 0.59762292 127.125 0.25 C129.125 3.25 129.125 3.25 129.03515625 5.73828125 C127.86109743 8.97828049 126.50465306 9.72009297 123.5625 11.4375 C122.05504548 12.32880306 120.56715915 13.25651258 119.125 14.25 C119.125 14.91 119.125 15.57 119.125 16.25 C120.77255058 17.63239325 122.47001029 18.95552593 124.1875 20.25 C136.28789352 29.97685479 143.36689316 44.09289765 146.125 59.25 C146.48928426 63.55331448 146.50805704 67.80883345 146.4375 72.125 C146.4262207 73.26469238 146.41494141 74.40438477 146.40332031 75.57861328 C146.19685422 88.26903355 144.43777676 99.28099087 140.125 111.25 C139.3927713 113.46069756 138.67533741 115.67594231 137.95751953 117.89135742 C136.71725157 121.69041539 135.42579979 125.47131558 134.125 129.25 C133.77050781 130.29027344 133.41601562 131.33054688 133.05078125 132.40234375 C127.74977758 146.45295943 118.21516807 159.38892543 109.125 171.25 C108.5784375 171.96542969 108.031875 172.68085938 107.46875 173.41796875 C106.35160551 174.86446008 105.2277346 176.30577812 104.09765625 177.7421875 C102.57496622 179.67796374 101.06378254 181.62099671 99.55859375 183.5703125 C94.63667107 189.92227083 89.62397226 196.09275435 84.1796875 202.01171875 C82.24397397 204.12039527 80.36680024 206.26786328 78.5 208.4375 C71.66242522 216.26325575 71.66242522 216.26325575 68.125 219.25 C67.465 219.25 66.805 219.25 66.125 219.25 C66.125 219.91 66.125 220.57 66.125 221.25 C57.97081011 229.67751469 47.81720537 236.71949695 38.125 243.25 C37.07570312 243.97316406 36.02640625 244.69632813 34.9453125 245.44140625 C21.0575191 254.83850001 3.26932656 264.41232722 -13.875 263.25 C-15.36152192 260.27695616 -15.01939773 257.24672497 -15.01544189 253.98667908 C-15.01841302 253.229257 -15.02138414 252.47183493 -15.0244453 251.69146067 C-15.03315491 249.13926679 -15.03464252 246.5871197 -15.03613281 244.03491211 C-15.04075987 242.21000569 -15.04578437 240.38510024 -15.05117798 238.56019592 C-15.06432609 233.58825746 -15.07075313 228.61633252 -15.07518864 223.64437938 C-15.07811913 220.53357877 -15.08222418 217.42278186 -15.08669281 214.31198311 C-15.10038209 204.56708955 -15.11003833 194.82220443 -15.1138947 185.07730192 C-15.11836104 173.85336816 -15.13583638 162.62955706 -15.1648953 151.40566057 C-15.18659722 142.71922433 -15.19660372 134.03282235 -15.19793582 125.34635931 C-15.19897897 120.16522959 -15.20478003 114.98421494 -15.22275543 109.80311394 C-15.23938073 104.91525393 -15.24132237 100.02759361 -15.23261642 95.13971519 C-15.23185337 93.35852265 -15.23609047 91.57731875 -15.24607468 89.79615402 C-15.32351466 75.10235512 -14.60674189 60.13049652 -8.0625 46.6875 C-7.7106665 45.93355957 -7.35883301 45.17961914 -6.99633789 44.40283203 C-4.5029259 39.19845064 -1.76916924 34.53864352 2.125 30.25 C3.33337854 28.87503973 4.54171053 27.50003855 5.75 26.125 C6.29914063 25.52429688 6.84828125 24.92359375 7.4140625 24.3046875 C9.5381505 21.75384209 11.31977728 19.03272324 13.125 16.25 C12.16078125 15.77949219 11.1965625 15.30898437 10.203125 14.82421875 C8.92697704 14.19552821 7.65094126 13.56660993 6.375 12.9375 C5.74078125 12.62876953 5.1065625 12.32003906 4.453125 12.00195312 C1.09352088 10.339649 -1.97358921 8.63120835 -4.875 6.25 C-3.81271234 0.3315402 -3.81271234 0.3315402 0 0 Z " fill="#F6F6F6" transform="translate(141.875,62.75)"/>
<path d="M0 0 C1.5415636 -0.02741912 3.08327474 -0.04658248 4.625 -0.0625 C5.48351562 -0.07410156 6.34203125 -0.08570312 7.2265625 -0.09765625 C10 0 10 0 12.46679688 0.5 C17.42120024 1.20112065 22.30749585 1.12243599 27.3046875 1.09765625 C28.38380402 1.0962413 29.46292053 1.09482635 30.57473755 1.09336853 C34.00818702 1.08778844 37.44157036 1.07523955 40.875 1.0625 C43.20833239 1.05748243 45.5416658 1.05291997 47.875 1.04882812 C53.58335575 1.03782553 59.29167315 1.02110721 65 1 C64.04203958 2.13155939 63.08210739 3.26144973 62.12133789 4.390625 C61.58698624 5.02000977 61.05263458 5.64939453 60.50209045 6.29785156 C58.93703908 8.07134645 57.30962088 9.55643691 55.4375 11 C49.94241675 15.58126674 46.85812613 19.79174054 46 27 C45.34 27.33 44.68 27.66 44 28 C44.495 29.485 44.495 29.485 45 31 C47.36247308 31.41800832 47.36247308 31.41800832 50 31 C51.80910141 28.7952413 51.80910141 28.7952413 53.25 26 C56.35094932 21.19962211 56.35094932 21.19962211 59.2734375 20.30078125 C61.60957617 20.31242314 63.71120312 20.54224062 66 21 C67.010625 21.165 68.02125 21.33 69.0625 21.5 C69.701875 21.665 70.34125 21.83 71 22 C71 21.34 71 20.68 71 20 C71.99 20 72.98 20 74 20 C73.43923199 17.50995496 73.43923199 17.50995496 72 15 C68.97017694 13.62810173 68.97017694 13.62810173 66 13 C71.79310345 5.75862069 71.79310345 5.75862069 75 4 C79.94326235 4.71641483 83.26421945 7.90386129 87 11 C88.01513672 11.83337891 88.01513672 11.83337891 89.05078125 12.68359375 C99.20310772 21.85025746 104.58714877 35.94133059 105.27734375 49.41015625 C105.91850802 70.59023821 100.81119225 87.00604909 88 104 C87.00989819 105.33164591 86.02036209 106.66371254 85.03125 107.99609375 C82.04022071 112.01234576 79.03488439 116.01678364 76 120 C75.26136719 120.98355469 74.52273437 121.96710938 73.76171875 122.98046875 C73.18035156 123.64691406 72.59898437 124.31335938 72 125 C71.34 125 70.68 125 70 125 C70 125.66 70 126.32 70 127 C64.52380952 132 64.52380952 132 62 132 C61.67 132.99 61.34 133.98 61 135 C59.2421875 136.5859375 59.2421875 136.5859375 56.875 138.375 C52.24079509 141.96534527 47.83282211 145.74700098 43.4375 149.625 C38.20156842 154.21124598 32.96668165 158.38736072 27 162 C26.2575 162.48210937 25.515 162.96421875 24.75 163.4609375 C19.27520718 167 19.27520718 167 17 167 C18.04268393 161.8734707 19.30537439 156.9714171 20.9375 152 C26.03786374 135.55275962 29.89443872 116.02990634 22.53125 99.76953125 C17.79690517 91.20664736 11.47966633 85.85532118 2 83 C-12.04674445 80.77271494 -24.26049458 84.15130209 -36 92 C-36.66 92 -37.32 92 -38 92 C-38.12583153 86.77547499 -38.21536145 81.55187634 -38.2746582 76.32617188 C-38.29943679 74.55746049 -38.33327057 72.78884725 -38.37719727 71.02050781 C-38.90696821 49.10668858 -34.02313959 30.5704667 -19 14 C-11.53432346 6.54789742 -11.53432346 6.54789742 -7 6 C-5.25 7.4375 -5.25 7.4375 -4 9 C-0.34683329 7.75023244 0.78065836 7.32901247 3 4 C2.01 3.34 1.02 2.68 0 2 C0 1.34 0 0.68 0 0 Z " fill="#F3F3F3" transform="translate(174,80)"/>
<path d="M0 0 C3.74170461 1.75015215 6.77076148 4.28172172 9.9375 6.90625 C10.95263672 7.73962891 10.95263672 7.73962891 11.98828125 8.58984375 C22.14060772 17.75650746 27.52464877 31.84758059 28.21484375 45.31640625 C28.85600802 66.49648821 23.74869225 82.91229909 10.9375 99.90625 C9.94739819 101.23789591 8.95786209 102.56996254 7.96875 103.90234375 C4.97772071 107.91859576 1.97238439 111.92303364 -1.0625 115.90625 C-1.80113281 116.88980469 -2.53976563 117.87335938 -3.30078125 118.88671875 C-3.88214844 119.55316406 -4.46351563 120.21960938 -5.0625 120.90625 C-5.7225 120.90625 -6.3825 120.90625 -7.0625 120.90625 C-7.0625 121.56625 -7.0625 122.22625 -7.0625 122.90625 C-12.53869048 127.90625 -12.53869048 127.90625 -15.0625 127.90625 C-15.3925 128.89625 -15.7225 129.88625 -16.0625 130.90625 C-17.8203125 132.4921875 -17.8203125 132.4921875 -20.1875 134.28125 C-24.82170491 137.87159527 -29.22967789 141.65325098 -33.625 145.53125 C-38.86093158 150.11749598 -44.09581835 154.29361072 -50.0625 157.90625 C-50.805 158.38835937 -51.5475 158.87046875 -52.3125 159.3671875 C-57.78729282 162.90625 -57.78729282 162.90625 -60.0625 162.90625 C-59.01981607 157.7797207 -57.75712561 152.8776671 -56.125 147.90625 C-51.02463626 131.45900962 -47.16806128 111.93615634 -54.53125 95.67578125 C-59.26559483 87.11289736 -65.58283367 81.76157118 -75.0625 78.90625 C-89.10924445 76.67896494 -101.32299458 80.05755209 -113.0625 87.90625 C-113.7225 87.90625 -114.3825 87.90625 -115.0625 87.90625 C-115.18833153 82.68172499 -115.27786145 77.45812634 -115.3371582 72.23242188 C-115.36193679 70.46371049 -115.39577057 68.69509725 -115.43969727 66.92675781 C-115.96946821 45.01293858 -111.08563959 26.4767167 -96.0625 9.90625 C-88.33196354 2.18976906 -88.33196354 2.18976906 -84.0625 1.90625 C-82.140625 3.12109375 -82.140625 3.12109375 -80.3125 4.84375 C-79.69890625 5.40964844 -79.0853125 5.97554688 -78.453125 6.55859375 C-77.76476562 7.22568359 -77.76476562 7.22568359 -77.0625 7.90625 C-78.93957571 9.86153719 -80.84162407 11.72410805 -82.93359375 13.44921875 C-90.33678377 19.56489746 -95.3977596 26.38251859 -96.3984375 36.203125 C-96.53877412 48.60888192 -93.41891957 56.73886988 -85.0625 65.90625 C-73.13761872 77.77717254 -57.04955403 83.4824827 -40.375 83.46875 C-26.28020791 83.15699845 -12.52206479 81.86472558 -1.8203125 71.796875 C7.73300201 61.64866545 10.53615264 49.85172246 11.4375 36.15625 C11.13068014 29.48291809 8.37995288 22.69832819 4 17.69140625 C-0.58040923 13.58812298 -5.58097047 10.63549895 -11.0625 7.90625 C-9.66035066 6.53705716 -8.24021527 5.18626291 -6.8125 3.84375 C-5.62914062 2.71259766 -5.62914062 2.71259766 -4.421875 1.55859375 C-2.0625 -0.09375 -2.0625 -0.09375 0 0 Z " fill="#050505" transform="translate(251.0625,84.09375)"/>
<path d="M0 0 C4.35840854 0.04474752 8.27998298 1.31858058 12.44140625 2.515625 C15.9927668 3.48746748 19.46158783 4.02797502 23.125 4.25 C24.50365234 4.34667969 24.50365234 4.34667969 25.91015625 4.4453125 C32.29723505 4.68275037 37.85740107 3.93007048 44 2.25 C60.63070864 -2.12740734 80.87933848 -1.58739988 96.79296875 5.42578125 C99.66890323 6.4422338 101.34263851 6.18103836 104.3125 5.5625 C105.27027344 5.36398438 106.22804688 5.16546875 107.21484375 4.9609375 C110.79902016 4.08534004 114.30354169 3.02639576 117.8203125 1.9140625 C120.91523219 1.02230598 123.92686913 0.59762292 127.125 0.25 C129.125 3.25 129.125 3.25 129.03515625 5.73828125 C127.86109743 8.97828049 126.50465306 9.72009297 123.5625 11.4375 C122.05504548 12.32880306 120.56715915 13.25651258 119.125 14.25 C119.125 14.91 119.125 15.57 119.125 16.25 C120.77255058 17.63239325 122.47001029 18.95552593 124.1875 20.25 C136.28789352 29.97685479 143.36689316 44.09289765 146.125 59.25 C146.48928426 63.55331448 146.50805704 67.80883345 146.4375 72.125 C146.4262207 73.26469238 146.41494141 74.40438477 146.40332031 75.57861328 C146.19685422 88.26903355 144.43777676 99.28099087 140.125 111.25 C139.3927713 113.46069756 138.67533741 115.67594231 137.95751953 117.89135742 C136.71725157 121.69041539 135.42579979 125.47131558 134.125 129.25 C133.77050781 130.29027344 133.41601562 131.33054688 133.05078125 132.40234375 C127.74977758 146.45295943 118.21516807 159.38892543 109.125 171.25 C108.5784375 171.96542969 108.031875 172.68085938 107.46875 173.41796875 C106.35160551 174.86446008 105.2277346 176.30577812 104.09765625 177.7421875 C102.57496622 179.67796374 101.06378254 181.62099671 99.55859375 183.5703125 C94.63667107 189.92227083 89.62397226 196.09275435 84.1796875 202.01171875 C82.24397397 204.12039527 80.36680024 206.26786328 78.5 208.4375 C71.66242522 216.26325575 71.66242522 216.26325575 68.125 219.25 C67.465 219.25 66.805 219.25 66.125 219.25 C66.125 219.91 66.125 220.57 66.125 221.25 C64.55078125 222.8359375 64.55078125 222.8359375 62.4375 224.625 C61.34888672 225.55119141 61.34888672 225.55119141 60.23828125 226.49609375 C57.89050888 228.44461463 55.52935225 230.3715998 53.125 232.25 C52.795 231.59 52.465 230.93 52.125 230.25 C51.465 230.25 50.805 230.25 50.125 230.25 C50.125 229.26 50.125 228.27 50.125 227.25 C49.25875 227.4665625 49.25875 227.4665625 48.375 227.6875 C46.29166667 228.20833333 44.20833333 228.72916667 42.125 229.25 C45.32115571 225.96414895 48.58557338 222.99946065 52.1875 220.16796875 C58.55999731 215.00312802 64.3511113 209.37505518 70.125 203.5625 C70.6506958 203.03597839 71.1763916 202.50945679 71.71801758 201.96697998 C79.49754757 194.15933192 86.62883594 186.15798616 93.125 177.25 C94.45158101 175.64024496 95.78465276 174.0358109 97.125 172.4375 C100.67050003 168.02027578 103.78840601 163.3679774 106.875 158.625 C107.33519531 157.92012451 107.79539062 157.21524902 108.26953125 156.48901367 C111.22496742 151.87760698 113.75111983 147.1863396 116.125 142.25 C115.444375 143.260625 114.76375 144.27125 114.0625 145.3125 C112.703125 146.98046875 112.703125 146.98046875 111.125 148.25 C107.3125 148.125 107.3125 148.125 104.125 147.25 C104.785 146.92 105.445 146.59 106.125 146.25 C106.125 145.59 106.125 144.93 106.125 144.25 C105.465 144.25 104.805 144.25 104.125 144.25 C104.64876744 140.34860405 105.52307363 138.38113914 108.25 135.5625 C112.35713041 131.07971741 115.75573112 126.30390332 119.125 121.25 C119.48916016 120.70504883 119.85332031 120.16009766 120.22851562 119.59863281 C122.93664401 115.52733729 125.55687082 111.41114164 128.125 107.25 C128.64578125 106.40695313 129.1665625 105.56390625 129.703125 104.6953125 C137.79449159 90.21859035 138.3208702 70.15597436 134.5625 54.3125 C130.64195051 41.57756826 123.51078251 31.56766429 112.8125 23.625 C110.33604169 22.04468921 110.33604169 22.04468921 108.19140625 22.47265625 C105.76571485 23.38515642 104.29304019 24.57888675 102.375 26.3125 C101.76140625 26.86035156 101.1478125 27.40820312 100.515625 27.97265625 C100.05671875 28.39417969 99.5978125 28.81570312 99.125 29.25 C100.07375 29.641875 101.0225 30.03375 102 30.4375 C105.125 32.25 105.125 32.25 106.5625 34.8125 C107.125 37.25 107.125 37.25 106.125 39.25 C105.465 39.25 104.805 39.25 104.125 39.25 C103.279375 39.435625 102.43375 39.62125 101.5625 39.8125 C100.758125 39.956875 99.95375 40.10125 99.125 40.25 C98.795 39.92 98.465 39.59 98.125 39.25 C96.61030552 39.01807135 95.08745438 38.83784762 93.5625 38.6875 C92.73621094 38.60371094 91.90992188 38.51992187 91.05859375 38.43359375 C90.42050781 38.37300781 89.78242188 38.31242187 89.125 38.25 C88.898125 38.95125 88.67125 39.6525 88.4375 40.375 C86.80843133 43.94343613 84.71859269 46.31514511 82.125 49.25 C80.475 48.92 78.825 48.59 77.125 48.25 C77.125 47.59 77.125 46.93 77.125 46.25 C76.465 45.92 75.805 45.59 75.125 45.25 C76.115 44.92 77.105 44.59 78.125 44.25 C77.9084375 43.0434375 77.9084375 43.0434375 77.6875 41.8125 C78.6415173 34.04407339 85.55801934 28.53545999 91.328125 23.7578125 C93.02690913 22.33231104 94.56828374 20.82698315 96.125 19.25 C95.55918213 19.25444122 94.99336426 19.25888245 94.41040039 19.26345825 C88.43899095 19.30823635 82.46763035 19.33808842 76.49609375 19.35986328 C74.27732399 19.36982589 72.05856703 19.38340085 69.83984375 19.40087891 C57.0977785 19.49862941 44.72035884 19.33123757 32.125 17.25 C32.125 17.91 32.125 18.57 32.125 19.25 C33.445 19.91 34.765 20.57 36.125 21.25 C34.73255361 24.03489278 32.56508012 25.37301529 30.125 27.25 C29.526875 26.940625 28.92875 26.63125 28.3125 26.3125 C26.03543228 25.14790296 26.03543228 25.14790296 23.125 24.25 C16.82882336 27.39808832 12.64414869 32.98770242 8.125 38.25 C7.465 37.59 6.805 36.93 6.125 36.25 C6.785 35.26 7.445 34.27 8.125 33.25 C7.135 32.59 6.145 31.93 5.125 31.25 C5.785 30.59 6.445 29.93 7.125 29.25 C6.135 28.92 5.145 28.59 4.125 28.25 C4.52332031 27.80269531 4.92164063 27.35539062 5.33203125 26.89453125 C5.86183594 26.28996094 6.39164063 25.68539062 6.9375 25.0625 C7.45957031 24.47082031 7.98164063 23.87914063 8.51953125 23.26953125 C10.29026853 21.04210747 11.70770529 18.71430521 13.125 16.25 C12.16078125 15.77949219 11.1965625 15.30898437 10.203125 14.82421875 C8.92697704 14.19552821 7.65094126 13.56660993 6.375 12.9375 C5.74078125 12.62876953 5.1065625 12.32003906 4.453125 12.00195312 C1.09352088 10.339649 -1.97358921 8.63120835 -4.875 6.25 C-3.81271234 0.3315402 -3.81271234 0.3315402 0 0 Z " fill="#F3F3F3" transform="translate(141.875,62.75)"/>
<path d="M0 0 C9.40001174 5.17716383 14.4760909 11.01170914 18.08203125 21.234375 C22.73086401 40.30448044 16.12842022 60.97925504 10 79 C9.505 80.485 9.505 80.485 9 82 C19.11247417 76.39140088 27.79218522 70.12619274 36.39501953 62.41503906 C38.76499424 60.325539 41.22404267 58.35275439 43.6875 56.375 C48.59102103 52.4099867 53.19895238 48.19410084 57.78515625 43.87109375 C60 42 60 42 62 42 C62 41.34 62 40.68 62 40 C62.66 40 63.32 40 64 40 C64 40.66 64 41.32 64 42 C64.66 42 65.32 42 66 42 C66.33 42.99 66.66 43.98 67 45 C70.8308053 45.44160248 70.8308053 45.44160248 72.484375 43.6875 C72.90203125 43.130625 73.3196875 42.57375 73.75 42 C74.4925 41.01 75.235 40.02 76 39 C76.33 39.66 76.66 40.32 77 41 C76.27832031 42.64135742 76.27832031 42.64135742 75.078125 44.60546875 C74.6351709 45.33435303 74.1922168 46.0632373 73.73583984 46.81420898 C73.00034912 47.98898804 73.00034912 47.98898804 72.25 49.1875 C71.75064941 49.99324463 71.25129883 50.79898926 70.73681641 51.62915039 C52.82072836 80.16623702 29.12810503 106.9663723 2 127 C1.15050781 127.68707031 0.30101562 128.37414062 -0.57421875 129.08203125 C-7.07410584 134.22123344 -14.39949117 138.2967758 -21.5625 142.4375 C-22.1702124 142.79166992 -22.7779248 143.14583984 -23.40405273 143.51074219 C-27.76148743 146 -27.76148743 146 -30 146 C-28.03420253 141.52005103 -24.86124449 138.19790958 -21.6796875 134.53515625 C-19.80708211 131.70882857 -19.63216115 130.31648252 -20 127 C-19.34 127 -18.68 127 -18 127 C-18.33 124.36 -18.66 121.72 -19 119 C-23.20626034 120.50223584 -24.73900021 123.28550034 -27 127 C-28.32982979 123.01051064 -27.28061072 121.93515341 -25.4296875 118.22265625 C-24.57890625 116.49112305 -24.57890625 116.49112305 -23.7109375 114.72460938 C-23.09954242 113.5036136 -22.48756051 112.28291151 -21.875 111.0625 C-14.31426091 95.83229439 -8.02613618 80.50824604 -2.875 64.3125 C-2.62113525 63.51642334 -2.36727051 62.72034668 -2.10571289 61.90014648 C0.49248855 53.63485972 2.42127932 45.66765743 3 37 C3.07734375 36.16082031 3.1546875 35.32164062 3.234375 34.45703125 C3.60294192 27.85354059 2.13835537 23.20023553 -2 18 C-8.41574218 11.95268658 -13.59484584 10.90389965 -22.25 10.4375 C-22.99507812 10.39431641 -23.74015625 10.35113281 -24.5078125 10.30664062 C-26.338349 10.20103275 -28.16915176 10.10005799 -30 10 C-27.05842726 6.81969093 -25.39610525 6.38562327 -21 6 C-13.59691264 5.75429869 -6.34838188 6.08958101 1 7 C0.67 4.69 0.34 2.38 0 0 Z M-17 122 C-16 124 -16 124 -16 124 Z " fill="#F2F2F2" transform="translate(182,165)"/>
<path d="M0 0 C1.89162234 2.15564188 3.16473158 3.92874849 4.5625 6.375 C4.94744629 7.01260254 5.33239258 7.65020508 5.72900391 8.30712891 C8.76388438 13.4002497 11.57968861 18.58539032 14 24 C14.44279297 24.93972656 14.44279297 24.93972656 14.89453125 25.8984375 C17.25061804 31.39984213 17.84920687 37.1154317 18.5703125 43.0234375 C18.82908711 45.92053532 18.82908711 45.92053532 20 48 C21.98 48 23.96 48 26 48 C27.46682129 45.28277367 28.12775985 43.36120077 28.75 40.25 C31.45170408 27.61433784 36.83880987 16.64031083 44 6 C44.65226562 4.90429688 45.30453125 3.80859375 45.9765625 2.6796875 C48 0 48 0 50.078125 -0.796875 C56.57403023 -0.65667561 60.41049101 1.44171216 65 6 C70.15079239 12.50626408 71.84169995 18.84603172 71 27 C68.95788643 37.14675178 64.68707985 46.08192685 56 52 C43.65214885 59.79458104 28.11360259 59.27165106 14.1875 56.875 C1.13151012 53.89155577 -9.34834353 46.35801965 -17.64453125 35.93359375 C-21.25228945 29.82717616 -20.80208787 22.5166113 -19.59765625 15.734375 C-17.19671431 7.76262005 -8.75409673 -1.47925468 0 0 Z " fill="#070606" transform="translate(183,101)"/>
<path d="M0 0 C3.91703467 3.18259067 5.64547043 5.44577558 6.34375 10.4765625 C7.3325191 30.40025984 -1.8046297 50.16152421 -9.68847656 68.01074219 C-11.0266743 71.06079674 -12.32594541 74.12511159 -13.6171875 77.1953125 C-17.43524126 86.22452292 -21.22557258 95.05733814 -26.39453125 103.40625 C-29.12945003 107.82470759 -31.5408818 112.42405844 -34 117 C-34.33 117 -34.66 117 -35 117 C-35 78.72 -35 40.44 -35 1 C-11.07321966 -4.52156469 -11.07321966 -4.52156469 0 0 Z " fill="#020202" transform="translate(171,186)"/>
<path d="M0 0 C0.495 0.99 0.495 0.99 1 2 C0.27832031 3.64135742 0.27832031 3.64135742 -0.921875 5.60546875 C-1.3648291 6.33435303 -1.8077832 7.0632373 -2.26416016 7.81420898 C-2.99965088 8.98898804 -2.99965088 8.98898804 -3.75 10.1875 C-4.24935059 10.99324463 -4.74870117 11.79898926 -5.26318359 12.62915039 C-23.17927164 41.16623702 -46.87189497 67.9663723 -74 88 C-74.84949219 88.68707031 -75.69898438 89.37414062 -76.57421875 90.08203125 C-83.07410584 95.22123344 -90.39949117 99.2967758 -97.5625 103.4375 C-98.4740686 103.96875488 -98.4740686 103.96875488 -99.40405273 104.51074219 C-103.76148743 107 -103.76148743 107 -106 107 C-104.31640713 103.06842801 -101.67392728 99.97364732 -99 96.6875 C-95.11132605 91.80516786 -91.37001006 86.86014242 -87.875 81.6875 C-87.45500732 81.07310059 -87.03501465 80.45870117 -86.60229492 79.82568359 C-84.43148651 76.54518191 -82.65472391 73.34737881 -81.18359375 69.6953125 C-75.56305506 56.18645687 -66.73326608 52.33810324 -53.82177734 46.38525391 C-47.0452547 43.05855469 -41.01964153 38.51877058 -35 34 C-34.09121094 33.33355469 -33.18242187 32.66710937 -32.24609375 31.98046875 C-20.45326757 22.85228116 -9.29625291 11.64854363 0 0 Z " fill="#080808" transform="translate(258,204)"/>
<path d="M0 0 C1.5415636 -0.02741912 3.08327474 -0.04658248 4.625 -0.0625 C5.48351562 -0.07410156 6.34203125 -0.08570312 7.2265625 -0.09765625 C10 0 10 0 12.46679688 0.5 C17.42120024 1.20112065 22.30749585 1.12243599 27.3046875 1.09765625 C28.38380402 1.0962413 29.46292053 1.09482635 30.57473755 1.09336853 C34.00818702 1.08778844 37.44157036 1.07523955 40.875 1.0625 C43.20833239 1.05748243 45.5416658 1.05291997 47.875 1.04882812 C53.58335575 1.03782553 59.29167315 1.02110721 65 1 C64.07721231 2.10809399 63.14976866 3.21231139 62.22045898 4.31494141 C61.70450668 4.9302774 61.18855438 5.5456134 60.65696716 6.17959595 C59.03505036 7.96149241 57.34988641 9.45509324 55.47265625 10.9609375 C51.72930741 14.06959378 49.11812969 17.58964348 46.4375 21.625 C45.96642822 22.32141602 45.49535645 23.01783203 45.01000977 23.73535156 C41.11968672 29.59129034 37.92338743 35.60318012 35 42 C34.33871868 43.33601244 33.67411186 44.67041532 33 46 C30.27570829 43.27570829 28.9598437 39.99446604 27.3125 36.5625 C22.28501954 26.29902075 16.80269272 15.90542853 8 8.375 C7.34 7.80523437 6.68 7.23546875 6 6.6484375 C3.99903366 4.95706186 3.99903366 4.95706186 1.75 3.4140625 C1.1725 2.94742188 0.595 2.48078125 0 2 C0 1.34 0 0.68 0 0 Z " fill="#050505" transform="translate(174,80)"/>
<path d="M0 0 C1.89162234 2.15564188 3.16473158 3.92874849 4.5625 6.375 C4.94744629 7.01260254 5.33239258 7.65020508 5.72900391 8.30712891 C17.69649189 28.39090566 17.69649189 28.39090566 16.5703125 34.2265625 C16.28800781 35.10441406 16.28800781 35.10441406 16 36 C15.67 35.01 15.34 34.02 15 33 C14.4225 33.78375 13.845 34.5675 13.25 35.375 C9.24369086 39.4505825 3.42720452 39.49983122 -2 40 C-3.32 40 -4.64 40 -6 40 C-5.01 40.33 -4.02 40.66 -3 41 C-2.67 42.65 -2.34 44.3 -2 46 C-2.66 46 -3.32 46 -4 46 C-4.33 46.66 -4.66 47.32 -5 48 C-19.57776567 35.48092643 -19.57776567 35.48092643 -20.203125 27.36328125 C-20.31985112 19.76635658 -20.19991883 13.74657163 -15.125 7.8046875 C-6.45305885 -1.09042861 -6.45305885 -1.09042861 0 0 Z " fill="#0B0A0B" transform="translate(183,101)"/>
<path d="M0 0 C5.47720041 0.37898257 8.93876088 2.96468768 12.75 6.75 C17.89963745 13.2548052 19.59375829 19.59799682 18.75 27.75 C18.07960259 31.21453552 17.41338164 34.62184945 15.75 37.75 C13.828125 38.40625 13.828125 38.40625 11.75 38.75 C10.76 39.41 9.77 40.07 8.75 40.75 C5.83203125 41.1640625 5.83203125 41.1640625 2.5625 41.375 C1.47582031 41.44976562 0.38914063 41.52453125 -0.73046875 41.6015625 C-1.56191406 41.65054688 -2.39335937 41.69953125 -3.25 41.75 C-3.53875 41.10417969 -3.8275 40.45835937 -4.125 39.79296875 C-5.05242939 37.56760153 -5.05242939 37.56760153 -7.25 37.0625 C-7.91 36.959375 -8.57 36.85625 -9.25 36.75 C-9.91 36.42 -10.57 36.09 -11.25 35.75 C-10.92 34.1 -10.59 32.45 -10.25 30.75 C-10.91 30.75 -11.57 30.75 -12.25 30.75 C-13.375 23 -13.375 23 -12.25 20.75 C-13.57 21.08 -14.89 21.41 -16.25 21.75 C-14.5532096 17.21714566 -12.29995158 13.29641513 -9.74609375 9.19921875 C-8.26809841 6.86668586 -8.26809841 6.86668586 -7.28515625 4.76953125 C-5.46615322 1.24049772 -3.80402057 0.29911957 0 0 Z " fill="#090707" transform="translate(235.25,100.25)"/>
<path d="M0 0 C8.26853309 8.08478791 8.44187032 17.38629724 8.6171875 28.36083984 C8.20987145 49.28387346 -1.12737712 70.72209071 -11.1875 88.75 C-12.54675242 91.40393382 -13.86737176 94.07643754 -15.1875 96.75 C-16.1875 98.75 -17.1875 100.75 -18.1875 102.75 C-18.8475 102.75 -19.5075 102.75 -20.1875 102.75 C-20.39375 103.41 -20.6 104.07 -20.8125 104.75 C-22.69902871 108.86606263 -25.39317979 112.2087703 -28.1875 115.75 C-29.51732979 111.76051064 -28.46811072 110.68515341 -26.6171875 106.97265625 C-25.76640625 105.24112305 -25.76640625 105.24112305 -24.8984375 103.47460938 C-24.28704242 102.2536136 -23.67506051 101.03291151 -23.0625 99.8125 C-15.50176091 84.58229439 -9.21363618 69.25824604 -4.0625 53.0625 C-3.80863525 52.26642334 -3.55477051 51.47034668 -3.29321289 50.65014648 C-0.69501145 42.38485972 1.23377932 34.41765743 1.8125 25.75 C1.88984375 24.91082031 1.9671875 24.07164062 2.046875 23.20703125 C2.41544192 16.60354059 0.95085537 11.95023553 -3.1875 6.75 C-9.60324218 0.70268658 -14.78234584 -0.34610035 -23.4375 -0.8125 C-24.55511719 -0.87727539 -24.55511719 -0.87727539 -25.6953125 -0.94335938 C-27.525849 -1.04896725 -29.35665176 -1.14994201 -31.1875 -1.25 C-23.47206535 -9.59161485 -8.16089264 -5.7606301 0 0 Z " fill="#111111" transform="translate(183.1875,176.25)"/>
<path d="M0 0 C0.89203125 0.01804687 1.7840625 0.03609375 2.703125 0.0546875 C3.71632812 0.08949219 3.71632812 0.08949219 4.75 0.125 C4.75 0.785 4.75 1.445 4.75 2.125 C5.74 2.125 6.73 2.125 7.75 2.125 C10.93903787 5.78648793 11.26865195 9.30250853 11.10546875 13.97265625 C10.43939314 18.00570746 8.14796691 20.07652482 5 22.4375 C1.52992947 23.49779933 -1.70265 23.80587332 -5.25 23.125 C-8.77379766 21.15470454 -10.95068885 19.02293345 -12.25 15.125 C-12.59222737 9.82047577 -12.77076609 6.40021597 -9.25 2.125 C-6.09626737 0.13316887 -3.69317565 -0.09718883 0 0 Z " fill="#964B4B" transform="translate(183.25,115.875)"/>
<path d="M0 0 C3.32255304 2.07500439 6.23284064 4.46568128 8 8 C8.43752262 11.85019902 8.14486622 13.7263638 6.3125 17.1875 C2.97291591 21.24915632 0.76783892 22.81058869 -4.5 23.375 C-8.31177679 22.96659534 -10.06791771 22.44340191 -13 20 C-15.61525329 15.94184834 -16.70124748 12.80855413 -16 8 C-14.38092222 4.99314126 -12.94422632 2.7418921 -10.25 0.625 C-6.73153747 -0.3523507 -3.5623791 -0.78133965 0 0 Z " fill="#924643" transform="translate(242,116)"/>
<path d="M0 0 C5.19953612 2.44378198 11.42826079 6.7480087 13.953125 11.91796875 C13.22928264 16.78667032 11.65497301 20.62510678 7.953125 23.91796875 C7.416875 23.03109375 6.880625 22.14421875 6.328125 21.23046875 C2.07775843 14.86242837 -4.33929808 11.2434552 -11.046875 7.91796875 C-9.64472566 6.54877591 -8.22459027 5.19798166 -6.796875 3.85546875 C-5.61351562 2.72431641 -5.61351562 2.72431641 -4.40625 1.5703125 C-2.046875 -0.08203125 -2.046875 -0.08203125 0 0 Z " fill="#0C0C0C" transform="translate(251.046875,84.08203125)"/>
<path d="M0 0 C5.4389165 -0.21755666 9.87080814 -0.10428384 15 2 C15 2.66 15 3.32 15 4 C16.32 4.66 17.64 5.32 19 6 C20.2981424 4.8509288 20.2981424 4.8509288 21 2 C24.16031271 6.74046906 23.51974857 11.30261871 22.46484375 16.77734375 C21.12299607 21.88809695 21.12299607 21.88809695 20 24 C18.078125 24.65625 18.078125 24.65625 16 25 C15.01 25.66 14.02 26.32 13 27 C10.08203125 27.4140625 10.08203125 27.4140625 6.8125 27.625 C5.72582031 27.69976562 4.63914063 27.77453125 3.51953125 27.8515625 C2.27236328 27.92503906 2.27236328 27.92503906 1 28 C0.71125 27.35417969 0.4225 26.70835937 0.125 26.04296875 C-0.80242939 23.81760153 -0.80242939 23.81760153 -3 23.3125 C-3.66 23.209375 -4.32 23.10625 -5 23 C-5.66 22.67 -6.32 22.34 -7 22 C-7.35368021 14.87399867 -6.95671348 9.52940894 -4 3 C-3.01 3 -2.02 3 -1 3 C-0.67 2.01 -0.34 1.02 0 0 Z M-3 6 C-5.35915976 9.21703604 -5.46046943 12.08600983 -5 16 C-3.65550563 19.31965361 -2.03785258 22.17687554 0.8125 24.4375 C5.55164171 25.65613644 8.87747969 25.58284708 13.25 23.3125 C16.9487337 20.20220121 18.63230541 17.8793279 19.5625 13.125 C18.75778347 8.65435262 16.2574991 6.06339941 13 3 C7.08445145 0.04222573 1.70961914 1.9631836 -3 6 Z " fill="#2D0605" transform="translate(231,114)"/>
<path d="M0 0 C0.33 0.66 0.66 1.32 1 2 C0.19897461 3.75244141 0.19897461 3.75244141 -1.09765625 5.8515625 C-1.57009766 6.62113281 -2.04253906 7.39070312 -2.52929688 8.18359375 C-3.03525391 8.98925781 -3.54121094 9.79492188 -4.0625 10.625 C-4.54138672 11.40746094 -5.02027344 12.18992188 -5.51367188 12.99609375 C-8.74501569 18.21296207 -12.23525086 23.1552067 -16 28 C-17.60875 27.690625 -17.60875 27.690625 -19.25 27.375 C-23.04830539 26.99516946 -23.8842665 27.19397748 -27 29 C-22.57062369 23.68336208 -17.87459211 18.78239618 -12.9375 13.9375 C-8.37468671 9.45941861 -3.99723183 4.99459182 0 0 Z M-29 29 C-28.34 29.33 -27.68 29.66 -27 30 C-27.33 30.66 -27.66 31.32 -28 32 C-28.66 32 -29.32 32 -30 32 C-30.33 32.66 -30.66 33.32 -31 34 C-33.375 36.1875 -33.375 36.1875 -36 38 C-36.99 37.67 -37.98 37.34 -39 37 C-35.7 34.36 -32.4 31.72 -29 29 Z " fill="#101010" transform="translate(258,204)"/>
<path d="M0 0 C5.77424351 6.41582612 9.4581998 14.80975492 12 23 C11.5703125 25.2265625 11.5703125 25.2265625 11 27 C10.67 26.01 10.34 25.02 10 24 C9.4225 24.78375 8.845 25.5675 8.25 26.375 C3.45127127 31.21486069 -4.78777282 31.08543534 -11.25 31.125 C-12.1575 31.08375 -13.065 31.0425 -14 31 C-14.33 29.02 -14.66 27.04 -15 25 C-14.34 25.495 -13.68 25.99 -13 26.5 C-8.55450688 28.72274656 -4.50135633 28.8112507 0.3125 27.25 C2.56820922 25.57910428 3.69829768 24.53831953 5 22 C5.61160125 16.97546048 5.35456808 12.56197566 3 8 C2.01 8 1.02 8 0 8 C0 7.34 0 6.68 0 6 C-1.58367747 6.14204741 -3.16693318 6.28880153 -4.75 6.4375 C-5.63171875 6.51871094 -6.5134375 6.59992188 -7.421875 6.68359375 C-10.7699531 7.09271769 -10.7699531 7.09271769 -14 8 C-15.29660434 10.49034386 -15.29660434 10.49034386 -16 13 C-17.125 9.25 -17.125 9.25 -16 7 C-10.6860737 4.61789511 -6.79146822 3.63803324 -1 4 C-0.67 2.68 -0.34 1.36 0 0 Z " fill="#2F1111" transform="translate(188,110)"/>
<path d="M0 0 C2.3125 1.125 2.3125 1.125 4 3 C5.08711382 6.91360975 5.4142982 9.06782904 3.75 12.8125 C2 15 2 15 -1 17 C-3.33199388 17.07905064 -5.66832622 17.08798769 -8 17 C-6 15.66666667 -4 14.33333333 -2 13 C-2.33 10.69 -2.66 8.38 -3 6 C-8.32170494 5.70437633 -8.32170494 5.70437633 -13 8 C-12.4568634 4.19804378 -10.84334437 2.49869657 -8 0 C-5.05854616 -1.47072692 -3.14695372 -0.75526889 0 0 Z " fill="#F7ECE8" transform="translate(242,119)"/>
<path d="M0 0 C1.32 0.33 2.64 0.66 4 1 C3.01 1 2.02 1 1 1 C1.33 36.64 1.66 72.28 2 109 C2.66 108.01 3.32 107.02 4 106 C4.66 106.66 5.32 107.32 6 108 C5.19185349 109.33597652 4.37836819 110.668725 3.5625 112 C3.11003906 112.7425 2.65757812 113.485 2.19140625 114.25 C1.79824219 114.8275 1.40507812 115.405 1 116 C0.67 116 0.34 116 0 116 C0 77.72 0 39.44 0 0 Z " fill="#161616" transform="translate(136,187)"/>
<path d="M0 0 C2.69782728 2.58991419 2.32874816 5.87684649 2.5625 9.5 C1.840625 8.654375 1.11875 7.80875 0.375 6.9375 C-2.16456014 4.17134743 -2.16456014 4.17134743 -5.1875 4.625 C-7.37266519 5.30091898 -7.37266519 5.30091898 -8.4375 6.5 C-8.15019945 8.83944736 -7.81813221 11.1739143 -7.4375 13.5 C-4.9625 14.49 -4.9625 14.49 -2.4375 15.5 C-2.4375 15.83 -2.4375 16.16 -2.4375 16.5 C-6.68768379 16.91668469 -8.79092568 16.94022082 -12.375 14.5 C-15.22867716 10.34919686 -15.1474846 8.4698922 -14.4375 3.5 C-11.08387732 -2.08937113 -5.67279186 -1.16364961 0 0 Z " fill="#F9F4ED" transform="translate(188.4375,119.5)"/>
<path d="M0 0 C1.32 0 2.64 0 4 0 C3.38188466 4.55315948 1.53234107 8.28459767 -0.5625 12.3125 C-1.0565332 13.28026367 -1.0565332 13.28026367 -1.56054688 14.26757812 C-2.36824255 15.84785228 -3.18337613 17.42432105 -4 19 C-4.66 19 -5.32 19 -6 19 C-6.20625 19.66 -6.4125 20.32 -6.625 21 C-8.51152871 25.11606263 -11.20567979 28.4587703 -14 32 C-15.35351305 27.93946086 -14.17641688 26.67355899 -12.32421875 22.87109375 C-11.89638847 21.98563622 -11.89638847 21.98563622 -11.45991516 21.08229065 C-10.85497199 19.83522224 -10.24523866 18.59046784 -9.63110352 17.34790039 C-8.69171716 15.44603798 -7.7675555 13.53736603 -6.84570312 11.62695312 C-2.30687641 2.30687641 -2.30687641 2.30687641 0 0 Z " fill="#121212" transform="translate(169,260)"/>
<path d="M0 0 C0.66 0.66 1.32 1.32 2 2 C1.67 2.66 1.34 3.32 1 4 C0.34 4 -0.32 4 -1 4 C-0.67 5.32 -0.34 6.64 0 8 C-0.53109375 7.65066406 -1.0621875 7.30132812 -1.609375 6.94140625 C-2.31578125 6.48636719 -3.0221875 6.03132812 -3.75 5.5625 C-4.44609375 5.11003906 -5.1421875 4.65757812 -5.859375 4.19140625 C-10.36335581 1.68462861 -15.19691961 1.70979497 -20.25 1.4375 C-21.36761719 1.37272461 -21.36761719 1.37272461 -22.5078125 1.30664062 C-24.338349 1.20103275 -26.16915176 1.10005799 -28 1 C-21.59492132 -5.92491115 -7.66368811 -4.3316498 0 0 Z " fill="#1E1E1E" transform="translate(180,174)"/>
<path d="M0 0 C1.7325 0.1546875 1.7325 0.1546875 3.5 0.3125 C5.64762184 3.53393276 6.061068 4.5720467 5.5 8.3125 C3.8125 10.1875 3.8125 10.1875 1.5 11.3125 C-1.87036311 11.07175978 -3.08798021 10.72451979 -5.5 8.3125 C-5.75 5.3125 -5.75 5.3125 -5.5 2.3125 C-3.5 0.3125 -3.5 0.3125 0 0 Z " fill="#130E0E" transform="translate(235.5,123.6875)"/>
<path d="M0 0 C0.66 0.66 1.32 1.32 2 2 C1.42307692 8.57692308 1.42307692 8.57692308 0 10 C-3.4375 10.25 -3.4375 10.25 -7 10 C-9.14762184 6.77856724 -9.561068 5.7404533 -9 2 C-6.07557433 -1.24936186 -4.04996841 -1.38551551 0 0 Z " fill="#221010" transform="translate(188,124)"/>
<path d="M0 0 C2.97 0.33 5.94 0.66 9 1 C8.20928784 2.75043149 7.41739082 4.50032778 6.625 6.25 C6.18414062 7.22453125 5.74328125 8.1990625 5.2890625 9.203125 C4.23361862 11.49311839 3.14456065 13.75366601 2 16 C-0.22825644 13.77174356 -0.69239369 12.34238372 -1.625 9.375 C-1.88539063 8.55773437 -2.14578125 7.74046875 -2.4140625 6.8984375 C-2.60742188 6.27195312 -2.80078125 5.64546875 -3 5 C-2.01 5 -1.02 5 0 5 C0 3.35 0 1.7 0 0 Z " fill="#200E0F" transform="translate(205,110)"/>
<path d="M0 0 C5.4389165 -0.21755666 9.87080814 -0.10428384 15 2 C15 2.66 15 3.32 15 4 C15.66 4.33 16.32 4.66 17 5 C14 5 14 5 11 3 C5.70104669 2.57266506 2.26605859 2.48677528 -2 6 C-4.3388467 9.22983591 -4.3125238 12.09345253 -4 16 C-3.07585059 19.27564363 -3.07585059 19.27564363 -2 22 C-5 21 -5 21 -6.25 18.9375 C-7.67196091 13.36815312 -6.41549498 8.15305595 -4 3 C-3.01 3 -2.02 3 -1 3 C-0.67 2.01 -0.34 1.02 0 0 Z " fill="#370707" transform="translate(231,114)"/>
<path d="M0 0 C0.66 0.99 1.32 1.98 2 3 C1.01 3.99 0.02 4.98 -1 6 C-0.67 6.99 -0.34 7.98 0 9 C1.65 9.33 3.3 9.66 5 10 C4.01 12.31 3.02 14.62 2 17 C1.67 17 1.34 17 1 17 C0.67 15.35 0.34 13.7 0 12 C-2.64 13.65 -5.28 15.3 -8 17 C-8 13.33438041 -6.91081517 11.6785801 -5.125 8.5 C-4.59132812 7.5409375 -4.05765625 6.581875 -3.5078125 5.59375 C-2.40170566 3.69101698 -1.22082762 1.83124144 0 0 Z " fill="#E8E8E8" transform="translate(219,102)"/>
<path d="M0 0 C0.33 0.66 0.66 1.32 1 2 C0.10375977 3.87939453 0.10375977 3.87939453 -1.30859375 6.1328125 C-1.80810547 6.93847656 -2.30761719 7.74414062 -2.82226562 8.57421875 C-3.35529297 9.41597656 -3.88832031 10.25773438 -4.4375 11.125 C-4.96666016 11.97449219 -5.49582031 12.82398438 -6.04101562 13.69921875 C-7.35358558 15.80406066 -8.67346478 17.90394173 -10 20 C-10.33 18.68 -10.66 17.36 -11 16 C-12.65 16.66 -14.3 17.32 -16 18 C-10.81643758 11.86157082 -5.42287737 5.92658337 0 0 Z " fill="#1A1A1A" transform="translate(258,204)"/>
<path d="M0 0 C0.33 0 0.66 0 1 0 C1.62376238 7.9529703 1.62376238 7.9529703 -0.75 11.9375 C-4.19841382 15.098546 -6.41104165 16.10841408 -11.0625 16.3125 C-15 16 -15 16 -18 13 C-15.03 13 -12.06 13 -9 13 C-9.66 12.34 -10.32 11.68 -11 11 C-10.030625 10.87625 -9.06125 10.7525 -8.0625 10.625 C-7.051875 10.41875 -6.04125 10.2125 -5 10 C-4.67 9.34 -4.34 8.68 -4 8 C-3.01 8 -2.02 8 -1 8 C-1.0309375 6.2984375 -1.0309375 6.2984375 -1.0625 4.5625 C-1 1 -1 1 0 0 Z " fill="#944749" transform="translate(193,123)"/>
<path d="M0 0 C3.32255304 2.07500439 6.23284064 4.46568128 8 8 C8.1875 11 8.1875 11 8 14 C7.34 14.66 6.68 15.32 6 16 C6 13.69 6 11.38 6 9 C5.34 9 4.68 9 4 9 C3.7525 8.38125 3.505 7.7625 3.25 7.125 C1.72610985 4.53438674 0.86546233 3.87555793 -2 3 C-5.2112936 3.32768302 -7.93844769 3.97948256 -11 5 C-11.33 4.01 -11.66 3.02 -12 2 C-8.30994335 -0.46003776 -4.27466776 -0.93756654 0 0 Z " fill="#98494C" transform="translate(242,116)"/>
<path d="M0 0 C2.91227269 3.28804981 4.49701212 5.59885603 5 10 C4.34 10 3.68 10 3 10 C3 9.34 3 8.68 3 8 C2.01 8 1.02 8 0 8 C0 7.34 0 6.68 0 6 C-1.58367747 6.14204741 -3.16693318 6.28880153 -4.75 6.4375 C-5.63171875 6.51871094 -6.5134375 6.59992188 -7.421875 6.68359375 C-10.7699531 7.09271769 -10.7699531 7.09271769 -14 8 C-15.29660434 10.49034386 -15.29660434 10.49034386 -16 13 C-17.125 9.25 -17.125 9.25 -16 7 C-10.6860737 4.61789511 -6.79146822 3.63803324 -1 4 C-0.67 2.68 -0.34 1.36 0 0 Z " fill="#280E0E" transform="translate(188,110)"/>
<path d="M0 0 C0.33 0.66 0.66 1.32 1 2 C0.67 2.66 0.34 3.32 0 4 C-2.36328125 4.59765625 -2.36328125 4.59765625 -5.3125 5.0625 C-8.58695463 5.59148399 -11.79509273 6.13977548 -15 7 C-15.12375 8.010625 -15.2475 9.02125 -15.375 10.0625 C-15.98085335 13.87937612 -16.87193912 17.31500112 -18 21 C-18.33 21 -18.66 21 -19 21 C-19 18.03 -19 15.06 -19 12 C-18.34 12 -17.68 12 -17 12 C-16.9071875 10.6078125 -16.9071875 10.6078125 -16.8125 9.1875 C-16 6 -16 6 -14 4.25 C-10.69134208 2.87139253 -7.50022914 2.10256491 -3.98828125 1.4296875 C-1.93896911 1.0728968 -1.93896911 1.0728968 0 0 Z " fill="#130102" transform="translate(187,110)"/>
<path d="M0 0 C1.43931117 0.45261358 2.87638999 0.91232979 4.3125 1.375 C5.11300781 1.63023437 5.91351563 1.88546875 6.73828125 2.1484375 C9 3 9 3 12 5 C12 6.65 12 8.3 12 10 C7.38 7.69 2.76 5.38 -2 3 C-1.34 2.67 -0.68 2.34 0 2 C0 1.34 0 0.68 0 0 Z " fill="#1B1B1B" transform="translate(178,160)"/>
<path d="M0 0 C2.72867752 4.09301628 2.50555788 7.19353672 2 12 C1.1824855 15.40237248 0.15775167 18.69902948 -1 22 C-1.99 21.34 -2.98 20.68 -4 20 C-3.34 19.34 -2.68 18.68 -2 18 C-1.71896694 15.12303271 -1.53399902 12.32070239 -1.4375 9.4375 C-1.11993243 1.11993243 -1.11993243 1.11993243 0 0 Z " fill="#2A2420" transform="translate(252,116)"/>
<path d="M0 0 C0.33 0.66 0.66 1.32 1 2 C2.32 1.67 3.64 1.34 5 1 C5 1.66 5 2.32 5 3 C4.34 3 3.68 3 3 3 C2.79375 3.66 2.5875 4.32 2.375 5 C0.48847129 9.11606263 -2.20567979 12.4587703 -5 16 C-6.39211215 11.82366356 -4.9535579 10.21039485 -3.0625 6.3125 C-2.49660156 5.13300781 -1.93070313 3.95351563 -1.34765625 2.73828125 C-0.90292969 1.83464844 -0.45820313 0.93101562 0 0 Z " fill="#343434" transform="translate(160,276)"/>
<path d="M0 0 C0.66 0 1.32 0 2 0 C2.33 4.95 2.66 9.9 3 15 C2.01 15.495 2.01 15.495 1 16 C0.32880451 14.5437455 -0.33681807 13.08492133 -1 11.625 C-1.37125 10.81289062 -1.7425 10.00078125 -2.125 9.1640625 C-3 7 -3 7 -3 5 C-2.01 5 -1.02 5 0 5 C0 3.35 0 1.7 0 0 Z " fill="#492D2E" transform="translate(205,110)"/>
<path d="M0 0 C1.24546405 2.49092811 0.7767578 3.41080733 0 6 C2.832168 6.33448259 2.832168 6.33448259 6 6 C8.37719693 4.12498069 8.37719693 4.12498069 10 2 C10.25 4.3125 10.25 4.3125 10 7 C8.3125 8.875 8.3125 8.875 6 10 C2.62963689 9.75925978 1.41201979 9.41201979 -1 7 C-1.1875 3.9375 -1.1875 3.9375 -1 1 C-0.67 0.67 -0.34 0.34 0 0 Z " fill="#2E1917" transform="translate(231,125)"/>
<path d="M0 0 C1.875 1.5625 1.875 1.5625 3 3 C1.68 3 0.36 3 -1 3 C-1 2.34 -1 1.68 -1 1 C-3.31 1.33 -5.62 1.66 -8 2 C-8 2.66 -8 3.32 -8 4 C-7.01 4.33 -6.02 4.66 -5 5 C-6.423125 5.4640625 -6.423125 5.4640625 -7.875 5.9375 C-10.86080408 6.87394742 -10.86080408 6.87394742 -13 8 C-12.4568634 4.19804378 -10.84334437 2.49869657 -8 0 C-5.06317146 -1.46841427 -3.13175678 -0.76696084 0 0 Z " fill="#E2BBB4" transform="translate(242,119)"/>
<path d="M0 0 C1.60332791 -0.08121924 3.20784026 -0.13929134 4.8125 -0.1875 C6.15248047 -0.23970703 6.15248047 -0.23970703 7.51953125 -0.29296875 C10.41647515 0.04918998 11.22555028 0.75393573 13 3 C13.99 2.67 14.98 2.34 16 2 C16 4.31 16 6.62 16 9 C13.625 8.25 13.625 8.25 11 7 C10.71125 6.34 10.4225 5.68 10.125 5 C9.16785856 2.80009808 9.16785856 2.80009808 6.8359375 2.171875 C5.61777344 1.96304688 5.61777344 1.96304688 4.375 1.75 C3.55773437 1.60046875 2.74046875 1.4509375 1.8984375 1.296875 C1.27195313 1.19890625 0.64546875 1.1009375 0 1 C0 0.67 0 0.34 0 0 Z " fill="#100201" transform="translate(236,113)"/>
<path d="M0 0 C2.5 1.3125 2.5 1.3125 5 3 C5 3.99 5 4.98 5 6 C4.21625 6.28875 3.4325 6.5775 2.625 6.875 C-0.09671632 7.84912254 -0.09671632 7.84912254 -2 10 C-2.99 9.01 -3.98 8.02 -5 7 C-3 5 -3 5 0 4 C0 2.68 0 1.36 0 0 Z " fill="#EAEAEA" transform="translate(248,96)"/>
<path d="M0 0 C1.99954746 -0.04254356 4.00041636 -0.04080783 6 0 C7 1 7 1 7.0625 4.0625 C7.041875 5.031875 7.02125 6.00125 7 7 C6.01 7 5.02 7 4 7 C0 2.65714286 0 2.65714286 0 0 Z " fill="#0C110C" transform="translate(165,134)"/>
<path d="M0 0 C3.3 0 6.6 0 10 0 C9.01 2.31 8.02 4.62 7 7 C5.82780457 6.21654285 4.66236332 5.42297164 3.5 4.625 C2.8503125 4.18414062 2.200625 3.74328125 1.53125 3.2890625 C1.0259375 2.86367187 0.520625 2.43828125 0 2 C0 1.34 0 0.68 0 0 Z " fill="#1E1E1E" transform="translate(174,80)"/>
<path d="M0 0 C0.33 0 0.66 0 1 0 C1.08131463 1.43655854 1.13933559 2.8744483 1.1875 4.3125 C1.22230469 5.11300781 1.25710937 5.91351563 1.29296875 6.73828125 C1 9 1 9 -0.21875 10.78125 C-2.52137362 12.35672932 -3.92398744 12.30765272 -6.6875 12.1875 C-7.89986328 12.14689453 -7.89986328 12.14689453 -9.13671875 12.10546875 C-9.75160156 12.07066406 -10.36648437 12.03585938 -11 12 C-11 11.67 -11 11.34 -11 11 C-9.906875 10.773125 -8.81375 10.54625 -7.6875 10.3125 C-3.92910401 9.34290903 -3.92910401 9.34290903 -2.125 6.625 C-1.17052877 4.39790045 -0.44019778 2.37706802 0 0 Z " fill="#A55658" transform="translate(247,125)"/>
<path d="M0 0 C2.50037734 2.17424117 3.43628586 3.73045798 4 7 C3.01 7.66 2.02 8.32 1 9 C0.01 8.34 -0.98 7.68 -2 7 C-2.3125 4.5 -2.3125 4.5 -2 2 C-1.34 1.34 -0.68 0.68 0 0 Z " fill="#151616" transform="translate(248,108)"/>
<path d="M0 0 C2.26769408 0.02861444 4.42468231 0.17997468 6.6640625 0.53125 C6.9940625 1.19125 7.3240625 1.85125 7.6640625 2.53125 C5.0240625 2.53125 2.3840625 2.53125 -0.3359375 2.53125 C-0.9959375 4.51125 -1.6559375 6.49125 -2.3359375 8.53125 C-3.9859375 8.53125 -5.6359375 8.53125 -7.3359375 8.53125 C-3.94490611 0.89716928 -3.94490611 0.89716928 0 0 Z " fill="#272727" transform="translate(233.3359375,100.46875)"/>
<path d="M0 0 C0.66 0.66 1.32 1.32 2 2 C-0.35203243 2.6332395 -2.65463228 3.10687874 -5.0625 3.5 C-8.04843364 3.93139144 -8.04843364 3.93139144 -11 5 C-11.33 4.01 -11.66 3.02 -12 2 C-8.07925671 -0.61382886 -4.55488983 -0.29386386 0 0 Z " fill="#944443" transform="translate(242,116)"/>
<path d="M0 0 C0.61875 0.495 1.2375 0.99 1.875 1.5 C6.26029741 3.60494276 10.21713261 3.25075227 15 3 C14.67 3.66 14.34 4.32 14 5 C9.65012229 6.03568517 5.45537928 6.08910759 1 6 C0.67 4.02 0.34 2.04 0 0 Z " fill="#370606" transform="translate(173,135)"/>
<path d="M0 0 C0.33 0.66 0.66 1.32 1 2 C0.00390625 4.1640625 0.00390625 4.1640625 -1.4375 6.625 C-1.91058594 7.44226563 -2.38367188 8.25953125 -2.87109375 9.1015625 C-3.24363281 9.72804687 -3.61617187 10.35453125 -4 11 C-7 11 -7 11 -9 10 C-6.03 6.7 -3.06 3.4 0 0 Z " fill="#323232" transform="translate(258,204)"/>
<path d="M0 0 C0.33 0.99 0.66 1.98 1 3 C-2.0684847 5.97550031 -3.46236331 6.96474513 -7.8125 7.25 C-8.864375 7.1675 -9.91625 7.085 -11 7 C-8.62463329 5.41642219 -6.23494336 3.88406307 -3.8125 2.375 C-2.73935547 1.70597656 -2.73935547 1.70597656 -1.64453125 1.0234375 C-1.10183594 0.68570313 -0.55914062 0.34796875 0 0 Z " fill="#F7D6CC" transform="translate(245,129)"/>
<path d="M0 0 C1.65 0.33 3.3 0.66 5 1 C4.625 3.9375 4.625 3.9375 4 7 C3.01 7.495 3.01 7.495 2 8 C1.67 7.01 1.34 6.02 1 5 C0.34 4.67 -0.32 4.34 -1 4 C-0.67 2.68 -0.34 1.36 0 0 Z " fill="#06030A" transform="translate(181,125)"/>
<path d="M0 0 C1.33333333 2 2.66666667 4 4 6 C6.05003955 7.19232613 6.05003955 7.19232613 8 8 C1.6 8.49230769 1.6 8.49230769 -1.4375 6 C-1.953125 5.34 -2.46875 4.68 -3 4 C-2.01 4 -1.02 4 0 4 C0 2.68 0 1.36 0 0 Z " fill="#F2D4D0" transform="translate(178,128)"/>
<path d="M0 0 C0.33 0 0.66 0 1 0 C1.66 3.63 2.32 7.26 3 11 C1.35 10.67 -0.3 10.34 -2 10 C-1.85950482 8.52031676 -1.71245174 7.04125484 -1.5625 5.5625 C-1.48128906 4.73878906 -1.40007812 3.91507812 -1.31640625 3.06640625 C-1 1 -1 1 0 0 Z " fill="#360709" transform="translate(170,124)"/>
<path d="M0 0 C2.97 0.495 2.97 0.495 6 1 C6.84098656 5.01804691 7.05404945 8.01803543 6 12 C5.34 12 4.68 12 4 12 C4 8.7 4 5.4 4 2 C2.68 1.34 1.36 0.68 0 0 Z " fill="#9F5757" transform="translate(186,119)"/>
<path d="M0 0 C0.66 0.33 1.32 0.66 2 1 C1.25160674 6.23875285 -1.10859173 9.6628876 -4 14 C-3.46148032 8.72250715 -2.22656164 4.74354436 0 0 Z " fill="#CACACA" transform="translate(133,112)"/>
<path d="M0 0 C0.99 0 1.98 0 3 0 C2.67 1.32 2.34 2.64 2 4 C1.34 4 0.68 4 0 4 C0 4.66 0 5.32 0 6 C-0.66 6 -1.32 6 -2 6 C-2.33 6.99 -2.66 7.98 -3 9 C-3 8.01 -3 7.02 -3 6 C-3.99 5.67 -4.98 5.34 -6 5 C-5.195625 4.54625 -4.39125 4.0925 -3.5625 3.625 C-0.91143428 2.25274335 -0.91143428 2.25274335 0 0 Z " fill="#FAFBFB" transform="translate(217,113)"/>
<path d="M0 0 C0.99 0.33 1.98 0.66 3 1 C1.35 2.65 -0.3 4.3 -2 6 C-1.67 6.66 -1.34 7.32 -1 8 C-2.98 8.66 -4.96 9.32 -7 10 C-5.33248852 6.05860922 -2.77289351 3.2107188 0 0 Z " fill="#272727" transform="translate(159,301)"/>
<path d="M0 0 C3 3.75 3 3.75 3 6 C0.69 7.32 -1.62 8.64 -4 10 C-2.66666667 6.66666667 -1.33333333 3.33333333 0 0 Z " fill="#D4D4D4" transform="translate(275,160)"/>
<path d="M0 0 C4 6 4 6 8 12 C5 12 5 12 2.875 9.9375 C0.71175849 6.54842163 0.31155212 3.97228948 0 0 Z " fill="#E5E4E5" transform="translate(163,131)"/>
<path d="M0 0 C0 0.33 0 0.66 0 1 C-0.63808594 1.20496094 -1.27617187 1.40992187 -1.93359375 1.62109375 C-2.75988281 1.89050781 -3.58617187 2.15992187 -4.4375 2.4375 C-5.67306641 2.83775391 -5.67306641 2.83775391 -6.93359375 3.24609375 C-8.96219588 3.82155494 -8.96219588 3.82155494 -10 5 C-10.36760731 7.32817964 -10.70241581 9.6618385 -11 12 C-11.33 12 -11.66 12 -12 12 C-12.48 4.8 -12.48 4.8 -10.5 1.5 C-6.85991277 -0.68405234 -4.20345267 -0.28023018 0 0 Z " fill="#F8CEC6" transform="translate(186,119)"/>
<path d="M0 0 C0.89203125 0.01804687 1.7840625 0.03609375 2.703125 0.0546875 C3.71632812 0.08949219 3.71632812 0.08949219 4.75 0.125 C4.75 0.455 4.75 0.785 4.75 1.125 C3.90695313 1.21136719 3.06390625 1.29773438 2.1953125 1.38671875 C1.09960938 1.52722656 0.00390625 1.66773437 -1.125 1.8125 C-2.21554688 1.94011719 -3.30609375 2.06773438 -4.4296875 2.19921875 C-7.4802512 2.84112757 -7.4802512 2.84112757 -8.6328125 5.70703125 C-8.83648437 6.50496094 -9.04015625 7.30289063 -9.25 8.125 C-10.375 4.375 -10.375 4.375 -9.25 2.125 C-6.12036139 0.10906162 -3.67627741 -0.09674414 0 0 Z " fill="#360806" transform="translate(181.25,114.875)"/>
<path d="M0 0 C0.66 0 1.32 0 2 0 C2.6875 1.75 2.6875 1.75 3 4 C1.75 6.25 1.75 6.25 0 8 C-0.99 8 -1.98 8 -3 8 C-2.37240135 5.07120629 -1.41377341 2.63904371 0 0 Z " fill="#FBFBFB" transform="translate(206,273)"/>
<path d="M0 0 C1 3 1 3 1 7 C-0.175625 7.4640625 -0.175625 7.4640625 -1.375 7.9375 C-3.92330128 8.92875038 -3.92330128 8.92875038 -6 10 C-4.34832443 6.4213696 -2.21713508 3.25179812 0 0 Z " fill="#E4E4E4" transform="translate(247,224)"/>
<path d="M0 0 C-1.26941497 3.91402949 -2.51167694 5.79072873 -6 8 C-6 5 -6 5 -4 3 C-4.66 2.34 -5.32 1.68 -6 1 C-4 0 -4 0 0 0 Z " fill="#151114" transform="translate(248,142)"/>
<path d="M0 0 C2 1 2 1 2.8515625 3.28515625 C3.10679687 4.20167969 3.36203125 5.11820312 3.625 6.0625 C3.88539063 6.98160156 4.14578125 7.90070313 4.4140625 8.84765625 C4.60742188 9.55792969 4.80078125 10.26820313 5 11 C4.34 11 3.68 11 3 11 C2.30034557 9.73581754 1.61565237 8.46334598 0.9375 7.1875 C0.55464844 6.47980469 0.17179688 5.77210937 -0.22265625 5.04296875 C-1 3 -1 3 0 0 Z " fill="#441E1C" transform="translate(193,119)"/>
<path d="M0 0 C0 3 0 3 -2.25 5.5 C-4.43541108 7.48673735 -6.58854412 9.30304957 -9 11 C-9.66 10.34 -10.32 9.68 -11 9 C-9.6696875 8.1646875 -9.6696875 8.1646875 -8.3125 7.3125 C-5.15720622 5.22146208 -2.60131889 2.75433765 0 0 Z " fill="#2C2C2C" transform="translate(253,152)"/>
<path d="M0 0 C0.33 0.66 0.66 1.32 1 2 C0.67 2.66 0.34 3.32 0 4 C1.98 4.495 1.98 4.495 4 5 C4 5.66 4 6.32 4 7 C4.33 7.66 4.66 8.32 5 9 C3.35 8.67 1.7 8.34 0 8 C-0.38063221 5.6739143 -0.71269945 3.33944736 -1 1 C-0.67 0.67 -0.34 0.34 0 0 Z " fill="#272123" transform="translate(180,125)"/>
<path d="M0 0 C0.99 0.66 1.98 1.32 3 2 C2.19185349 3.33597652 1.37836819 4.668725 0.5625 6 C0.11003906 6.7425 -0.34242188 7.485 -0.80859375 8.25 C-1.20175781 8.8275 -1.59492188 9.405 -2 10 C-2.33 10 -2.66 10 -3 10 C-3 8.02 -3 6.04 -3 4 C-2.34 3.67 -1.68 3.34 -1 3 C-0.67 2.01 -0.34 1.02 0 0 Z " fill="#1B1B1B" transform="translate(139,293)"/>
<path d="M0 0 C2 3 2 3 2 5 C1.34 5 0.68 5 0 5 C-0.33 5.66 -0.66 6.32 -1 7 C-2.7074998 5.71937515 -4.37373596 4.38232443 -6 3 C-6 2.34 -6 1.68 -6 1 C-3 1 -3 1 -1.3125 2.5 C-0.879375 2.995 -0.44625 3.49 0 4 C0 2.68 0 1.36 0 0 Z " fill="#101010" transform="translate(179,142)"/>
<path d="M0 0 C1 3 1 3 0 6 C-1.65 5.67 -3.3 5.34 -5 5 C-4.67 3.68 -4.34 2.36 -4 1 C-2.68 0.67 -1.36 0.34 0 0 Z " fill="#080106" transform="translate(237,126)"/>
<path d="M0 0 C0.33 0.99 0.66 1.98 1 3 C-0.28965176 4.37562854 -1.62689293 5.70766393 -3 7 C-3.66 7 -4.32 7 -5 7 C-5.33 6.01 -5.66 5.02 -6 4 C-2.25 0 -2.25 0 0 0 Z " fill="#FBFBFB" transform="translate(164,82)"/>
<path d="M0 0 C2.31 0.66 4.62 1.32 7 2 C6.01 3.485 6.01 3.485 5 5 C2.69 4.34 0.38 3.68 -2 3 C-1.34 2.67 -0.68 2.34 0 2 C0 1.34 0 0.68 0 0 Z " fill="#252525" transform="translate(178,160)"/>
<path d="M0 0 C1.0828125 0.9590625 1.0828125 0.9590625 2.1875 1.9375 C4.98191184 3.98673535 6.61663274 4.61332946 10 5 C10 5.33 10 5.66 10 6 C2.57142857 6.28571429 2.57142857 6.28571429 -1 4 C-0.67 2.68 -0.34 1.36 0 0 Z " fill="#A75C5D" transform="translate(174,131)"/>
<path d="M0 0 C-1.2491742 3.45925163 -2.67527795 6.14693203 -5 9 C-5.36666667 3.5 -5.36666667 3.5 -3.625 1.125 C-2 0 -2 0 0 0 Z " fill="#1F1F1F" transform="translate(150,278)"/>
<path d="M0 0 C1 3 1 3 0.22265625 4.82421875 C-0.8515625 6.54947917 -1.92578125 8.27473958 -3 10 C-3.99 9.67 -4.98 9.34 -6 9 C-4.02 6.03 -2.04 3.06 0 0 Z " fill="#D6D6D6" transform="translate(265,178)"/>
<path d="M0 0 C0.66 0.66 1.32 1.32 2 2 C0.52307692 7.66153846 0.52307692 7.66153846 -2.125 9.375 C-2.74375 9.58125 -3.3625 9.7875 -4 10 C-2.8905928 6.51329166 -1.73662334 3.22515763 0 0 Z " fill="#D3D4D6" transform="translate(251,136)"/>
<path d="M0 0 C0.33 0 0.66 0 1 0 C1 2.97 1 5.94 1 9 C-0.65 9.33 -2.3 9.66 -4 10 C-4 9.34 -4 8.68 -4 8 C-3.01 8 -2.02 8 -1 8 C-1.020625 6.865625 -1.04125 5.73125 -1.0625 4.5625 C-1 1 -1 1 0 0 Z " fill="#853B3A" transform="translate(193,123)"/>
<path d="M0 0 C2.31 0 4.62 0 7 0 C5.35 1.98 3.7 3.96 2 6 C1.34 5.01 0.68 4.02 0 3 C0.66 2.67 1.32 2.34 2 2 C1.34 1.34 0.68 0.68 0 0 Z " fill="#2A2A2A" transform="translate(232,81)"/>
<path d="M0 0 C-1 3 -1 3 -3 4 C-3.66 4.66 -4.32 5.32 -5 6 C-5.99 5.34 -6.98 4.68 -8 4 C-2.25 0 -2.25 0 0 0 Z " fill="#D2D2D2" transform="translate(203,241)"/>
<path d="M0 0 C1.98 0 3.96 0 6 0 C6.33 0.66 6.66 1.32 7 2 C6.01 2 5.02 2 4 2 C3.67 2.99 3.34 3.98 3 5 C1.5 3.625 1.5 3.625 0 2 C0 1.34 0 0.68 0 0 Z " fill="#1C1514" transform="translate(165,134)"/>
<path d="M0 0 C0.66 0.33 1.32 0.66 2 1 C0.515 4.96 0.515 4.96 -1 9 C-2.1875 7.3125 -2.1875 7.3125 -3 5 C-1.625 2.25 -1.625 2.25 0 0 Z " fill="#84423E" transform="translate(174,118)"/>
<path d="M0 0 C0.99 0.33 1.98 0.66 3 1 C3.33 3.64 3.66 6.28 4 9 C1.4375 6.75 1.4375 6.75 -1 4 C-0.8125 1.6875 -0.8125 1.6875 0 0 Z " fill="#E9BDBC" transform="translate(187,120)"/>
<path d="M0 0 C0.33 1.98 0.66 3.96 1 6 C-1.97 5.505 -1.97 5.505 -5 5 C-5 3 -5 3 -3.625 1.375 C-2 0 -2 0 0 0 Z " fill="#FDFDFD" transform="translate(248,96)"/>
<path d="M0 0 C0.99 0.33 1.98 0.66 3 1 C1.02 3.97 1.02 3.97 -1 7 C-1.66 5.68 -2.32 4.36 -3 3 C-2.34 3 -1.68 3 -1 3 C-0.67 2.01 -0.34 1.02 0 0 Z " fill="#ECECEC" transform="translate(165,289)"/>
<path d="M0 0 C0.66 0.33 1.32 0.66 2 1 C2 2.65 2 4.3 2 6 C0.68 6.33 -0.64 6.66 -2 7 C-1.34 4.69 -0.68 2.38 0 0 Z " fill="#D8D8D8" transform="translate(181,244)"/>
<path d="M0 0 C-0.33 0.99 -0.66 1.98 -1 3 C-3.5625 4.1875 -3.5625 4.1875 -6 5 C-5.625 3.0625 -5.625 3.0625 -5 1 C-3 0 -3 0 0 0 Z " fill="#E7E7E7" transform="translate(223,237)"/>
<path d="M0 0 C2 3 2 3 1.625 5.6875 C1.41875 6.450625 1.2125 7.21375 1 8 C-0.5 6.6875 -0.5 6.6875 -2 5 C-2 4.01 -2 3.02 -2 2 C-1.34 2 -0.68 2 0 2 C0 1.34 0 0.68 0 0 Z " fill="#9C5053" transform="translate(228,125)"/>
<path d="M0 0 C2 2 2 2 2.25 5 C2 8 2 8 0 10 C-1.125 2.25 -1.125 2.25 0 0 Z " fill="#7B3236" transform="translate(248,122)"/>
<path d="M0 0 C0 0.66 0 1.32 0 2 C-1.66666667 3.66666667 -3.33333333 5.33333333 -5 7 C-5.66 6.34 -6.32 5.68 -7 5 C-2.25 0 -2.25 0 0 0 Z " fill="#EAEAEA" transform="translate(153,85)"/>
</svg>
